<?xml version="1.0" encoding="utf-8"?>
<!-- Generator: Adobe Illustrator 25.2.3, SVG Export Plug-In . SVG Version: 6.00 Build 0)  -->
<svg version="1.1" id="Calque_1" xmlns="http://www.w3.org/2000/svg" xmlns:xlink="http://www.w3.org/1999/xlink" x="0px" y="0px"
	 viewBox="0 0 299.95 319.43" style="enable-background:new 0 0 299.95 319.43;" xml:space="preserve">
<style type="text/css">
	.st0{fill:#1F2D50;}
	.st1{fill:#154D99;}
	.st2{stroke:#000000;stroke-width:0.25;stroke-miterlimit:10;}
	.st3{fill:none;}
	.st4{fill:#FFFFFF;}
	.st5{fill:#010202;}
	.st6{fill:#010202;stroke:#000000;stroke-width:0.25;stroke-miterlimit:10;}
</style>
<path class="st1" d="M105.61,37.8c0-3.32,0.47-6.49,1.33-9.53c4.12-14.93,17.78-25.83,33.99-25.83c14.55,0,27.02,8.82,32.42,21.38
	c1.85,4.31,2.89,9.01,2.89,13.98c0,19.48-15.83,35.31-35.31,35.31C121.39,73.11,105.61,57.28,105.61,37.8z"/>
<path class="st1" d="M275.11,254.7c-6.4-10.33-17.82-17.21-30.91-17.21c-0.85,0-1.71,0.05-2.56,0.09c-3.27-0.14-15.55-1-25.12-10.67
	c-9.81-9.86-13.04-24.98-8.53-39.2c-0.05,0.05-0.05,0.05-0.09,0.05c2.13-6.07,3.27-12.51,3.27-19.29c0-32.66-26.5-59.16-59.2-59.16
	c-32.66,0-59.16,26.5-59.16,59.16c0,32.71,26.5,59.16,59.16,59.16c4.5,0,8.91-0.52,13.13-1.47c0.76-0.24,2.04-0.62,3.65-0.95
	c4.98-1.04,13.46-1.8,21.85,2.46c13.04,6.59,20.43,22.56,17.78,39.63l0.05-0.05c-0.43,2.13-0.62,4.36-0.62,6.59
	c0,12.04,5.83,22.71,14.88,29.34c6.02,4.46,13.46,7.06,21.52,7.06c20.1,0,36.36-16.31,36.36-36.4
	C280.56,266.84,278.57,260.25,275.11,254.7z M244.21,293.57c-1.85,0-3.6-0.28-5.26-0.76c-7.49-2.28-12.94-9.2-12.94-17.4
	c0-10.05,8.15-18.2,18.2-18.2c8.82,0,16.12,6.26,17.78,14.55c0.24,1.18,0.38,2.42,0.38,3.65
	C262.36,285.46,254.26,293.57,244.21,293.57z"/>
<g>
	<path class="st1" d="M200.13,313.38c-15.69,5.55-32.56,8.58-50.15,8.58C67.12,321.96,0,254.84,0,171.99
		C0,117.81,28.72,70.36,71.76,44.01C73.28,62.07,81.53,78.18,94,89.89c-27.63,18.2-45.84,49.49-45.84,85.04
		c0,52.05,38.96,94.94,89.35,101.06c4.08,0.57,8.25,0.81,12.47,0.81c12.37,0,24.17-2.18,35.12-6.26c-0.05,1.09-0.09,2.18-0.09,3.32
		c0,7.35,1.33,14.41,3.79,20.86C191.4,301.68,195.29,307.98,200.13,313.38z"/>
	<path class="st1" d="M299.95,171.99c0,21.76-4.65,42.47-12.94,61.1c-4.17-4.46-9.05-8.2-14.5-11.14
		c-8.39-4.65-18.06-7.25-28.3-7.25h-0.47c5.21-12.23,8.06-25.64,8.06-39.77c0-3.08-0.14-6.16-0.43-9.2
		c-3.13-35.27-24.32-65.41-54.27-81.05c10.9-12.56,17.49-28.91,17.49-46.88c0-0.43,0-0.81-0.05-1.23
		C265.06,60.69,299.95,112.26,299.95,171.99z"/>
</g>
</svg>
